<?xml version="1.0" standalone="no"?><!DOCTYPE svg PUBLIC "-//W3C//DTD SVG 1.1//EN" "http://www.w3.org/Graphics/SVG/1.1/DTD/svg11.dtd"><svg t="1713104584140" class="icon" viewBox="0 0 1048 1024" version="1.1" xmlns="http://www.w3.org/2000/svg" p-id="9432" width="65.5" height="64" xmlns:xlink="http://www.w3.org/1999/xlink"><path d="M271.269888 325.574656l-6.668288-11.583488 1.10592-0.638976L0 467.369984v39.89504c0 32.800768 35.299328 53.362688 63.660032 37.093376a87.498752 87.498752 0 0 0 43.876352-75.915264v-47.96416l163.733504-94.90432z" fill="#AE392E" p-id="9433"></path><path d="M0 482.607104v24.65792c0 32.800768 35.299328 53.37088 63.660032 37.093376a87.498752 87.498752 0 0 0 43.876352-75.915264v-50.520064L0 482.607104z" fill="#C40041" p-id="9434"></path><path d="M785.65376 27.394048l201.900032 351.10912L583.753728 144.42496z" fill="#E6C190" p-id="9435"></path><path d="M987.553792 378.503168L483.106816 670.916608 280.895488 319.97952 78.995456 437.018624v351.10912l403.808256 234.070016 504.75008-292.585472z" fill="#FFD2A6" p-id="9436"></path><path d="M482.803712 671.08864l0.303104-0.172032-202.211328-352.58368L78.995456 435.36384v352.763904l403.808256 234.070016z" fill="#FCBC90" p-id="9437"></path><path d="M125.09184 527.335424l307.232768 177.840128v170.72128L125.09184 697.810944z" fill="#FFFFFF" p-id="9438"></path><path d="M138.371072 549.10976L418.69312 711.737344v140.82048L138.371072 690.42176z" fill="#33AEFF" p-id="9439"></path><path d="M377.126912 687.620096l-102.735872-59.604992 63.635456 177.88928 80.666624 46.661632v-48.7424zM288.48128 777.248768l-63.668224-177.987584-86.441984-50.151424v68.608l32.800768 91.66848z" fill="#FFFFFF" opacity=".2" p-id="9440"></path><path d="M648.142848 926.35136V692.256768l-116.24448 67.3792v234.094592zM684.703744 827.572224l288.169984-167.03488V504.0128L684.703744 670.826496z" fill="#FFFFFF" p-id="9441"></path><path d="M634.4704 918.511616V715.890688l-88.932352 51.552256v202.620928z" fill="#33AEFF" p-id="9442"></path><path d="M634.4704 854.46656V733.822976l-83.345408 233.005056 54.444032-31.563776zM545.538048 825.933824v105.570304l74.039296-206.979072-47.644672 27.623424z" fill="#FFFFFF" opacity=".2" p-id="9443"></path><path d="M697.22112 679.518208v125.09184l262.012928-151.87968v-125.09184z" fill="#33AEFF" p-id="9444"></path><path d="M959.234048 601.9072v-74.276864l-83.861504 48.61952-56.451072 157.810688 117.383168-68.042752zM723.091456 664.518656l-25.870336 72.318976v67.764224l72.13056-41.811968 56.459264-157.810688z" fill="#FFFFFF" opacity=".2" p-id="9445"></path><path d="M834.863104 582.311936c0 32.80896 35.397632 53.37088 63.848448 37.093376a87.457792 87.457792 0 0 0 43.99104-75.915264v-50.520064l-107.839488 64.684032v24.65792z" fill="#E3E3E3" p-id="9446"></path><path d="M1048.272896 429.30176L803.160064 1.80224 264.593408 313.99936l251.04384 435.634176 107.536384-64.67584v24.584192c0 32.80896 34.684928 53.37088 62.554112 37.093376 26.656768-15.5648 43.114496-44.539904 43.114496-75.915264v-49.307648l319.430656-192.1024z" fill="#E3E3E3" p-id="9447"></path><path d="M834.863104 582.311936c0 32.80896 35.397632 53.37088 63.848448 37.093376a87.457792 87.457792 0 0 0 43.99104-75.915264v-50.520064l-107.839488 64.684032v24.65792zM623.16544 684.957696v24.576c0 32.80896 34.69312 53.37088 62.562304 37.093376 26.656768-15.5648 43.114496-44.531712 43.114496-75.907072v-49.31584l-105.6768 63.553536z" fill="#D1D1D1" p-id="9448"></path><path d="M835.158016 557.4656l-0.28672-0.516096v-0.73728l-0.319488 0.188416-246.816768-429.719552-107.716608 62.431232 249.0368 431.734784-0.08192 0.04096v24.65792c0 32.80896 34.758656 53.37088 62.693376 37.093376 26.70592-15.5648 43.196416-44.531712 43.196416-75.907072V557.62944l0.294912-0.172032z" fill="#F43834" p-id="9449"></path><path d="M729.235456 621.1584l-0.180224-0.311296-0.08192 0.04096v24.65792c0 32.80896 34.758656 53.37088 62.693376 37.093376 26.70592-15.5648 43.196416-44.531712 43.196416-75.907072V557.62944l-105.627648 63.520768z" fill="#C40041" p-id="9450"></path><path d="M834.863104 556.949504v-0.73728l-0.311296 0.188416z" fill="#AE392E" p-id="9451"></path><path d="M1048.272896 429.30176L803.160064 1.80224 694.263808 64.929792l248.13568 428.040192 0.311296-0.188416v23.47008c0 32.800768 34.750464 53.362688 62.6688 37.085184 26.70592-15.5648 43.196416-44.531712 43.196416-75.907072l-0.303104-48.128z" fill="#F43834" p-id="9452"></path><path d="M1048.272896 429.30176l-105.562112 63.488v23.461888c0 32.800768 34.750464 53.37088 62.6688 37.093376 26.70592-15.5648 43.196416-44.539904 43.196416-75.915264l-0.303104-48.128z" fill="#C40041" p-id="9453"></path><path d="M634.4704 817.242112l-93.609984 54.116352v23.887872l93.609984-54.263808z" fill="#FFFFFF" p-id="9454"></path><path d="M623.12448 684.867584L372.310016 251.551744l-106.602496 61.800448L0 467.369984v15.44192l271.269888-157.237248 244.342784 424.050688 0.016384-0.016384v24.576c0 32.800768 35.30752 53.362688 63.668224 37.085184a87.49056 87.49056 0 0 0 43.876352-75.915264v-50.520064l-0.049152 0.032768z" fill="#F43834" p-id="9455"></path><path d="M264.6016 313.991168l1.10592-0.638976L0 467.369984v15.44192l271.269888-157.237248z" fill="#C84135" p-id="9456"></path><path d="M515.637248 749.461504v24.65792c0 32.80896 35.291136 53.37088 63.660032 37.093376a87.49056 87.49056 0 0 0 43.876352-75.915264v-50.520064l-107.536384 64.684032z" fill="#C40041" p-id="9457"></path></svg>